<?xml version="1.0" encoding="UTF-8" standalone="no"?>
<!-- Created with Inkscape (http://www.inkscape.org/) -->

<svg
   width="200"
   height="200"
   viewBox="0 0 52.916665 52.916666"
   version="1.1"
   id="svg5"
   xml:space="preserve"
   inkscape:version="1.2.1 (9c6d41e410, 2022-07-14, custom)"
   sodipodi:docname="icon.svg"
   xmlns:inkscape="http://www.inkscape.org/namespaces/inkscape"
   xmlns:sodipodi="http://sodipodi.sourceforge.net/DTD/sodipodi-0.dtd"
   xmlns="http://www.w3.org/2000/svg"
   xmlns:svg="http://www.w3.org/2000/svg"><sodipodi:namedview
     id="namedview7"
     pagecolor="#ffffff"
     bordercolor="#666666"
     borderopacity="1.0"
     inkscape:showpageshadow="2"
     inkscape:pageopacity="0.0"
     inkscape:pagecheckerboard="0"
     inkscape:deskcolor="#d1d1d1"
     inkscape:document-units="mm"
     showgrid="false"
     inkscape:zoom="2.096401"
     inkscape:cx="138.09381"
     inkscape:cy="160.03618"
     inkscape:window-width="1920"
     inkscape:window-height="1011"
     inkscape:window-x="0"
     inkscape:window-y="32"
     inkscape:window-maximized="1"
     inkscape:current-layer="g384" /><defs
     id="defs2" /><g
     inkscape:label="Layer 1"
     inkscape:groupmode="layer"
     id="layer1"><g
       id="g384"
       transform="translate(-15.408174,-10.773368)"><g
         id="g415"
         transform="matrix(0.52830423,0,0,0.52830423,-19.345911,-47.457331)"><path
           style="fill:#eedea6;stroke-width:0.264583"
           d="m 127.43261,206.71145 c -3.71078,-0.64066 -7.16359,-1.22281 -7.67292,-1.29368 -4.3741,-0.60863 -41.823161,-7.13554 -42.333331,-7.37818 l -0.661458,-0.31459 -0.197938,-7.80213 c -0.108866,-4.29116 -0.28746,-12.32649 -0.396875,-17.85629 l -0.198937,-10.05416 -3.042709,0.0512 c -3.518907,0.0593 -3.7402,-0.0302 -5.023877,-2.03062 l -0.872221,-1.35924 1.408193,-2.03486 c 0.774506,-1.11917 2.213231,-3.16595 3.197166,-4.5484 0.983936,-1.38244 7.66619,-10.78838 14.849454,-20.90208 11.933271,-16.80148 13.129098,-18.39537 13.855553,-18.46768 0.53225,-0.053 3.71976,1.0703 9.643,3.39819 4.86637,1.91254 9.20513,3.63551 9.64169,3.82882 0.43656,0.19331 3.55881,1.43957 6.93832,2.76946 l 6.14456,2.418 15.94815,16.27953 c 8.77148,8.95374 15.98848,16.457 16.03778,16.67391 0.0493,0.21691 -0.48648,0.96332 -1.19062,1.65869 -1.13625,1.12209 -1.47617,1.29828 -3.02173,1.56624 -0.95781,0.16606 -2.03638,0.30192 -2.39683,0.30192 -0.36045,0 -0.88365,0.16693 -1.16266,0.37095 -0.47464,0.34707 -0.51101,0.81127 -0.56478,7.2099 -0.0316,3.76142 -0.13764,10.44981 -0.23561,14.86309 l -0.17814,8.02414 -10.08219,7.58627 c -10.39098,7.81863 -10.97208,8.2368 -11.41958,8.21769 -0.14552,-0.006 -3.30068,-0.53548 -7.01146,-1.17613 z"
           id="path404" /><path
           style="fill:#f3d95c;stroke-width:0.264583"
           d="m 105.47219,202.65105 c -15.061403,-2.5705 -27.638231,-4.81501 -27.948502,-4.98781 -0.556538,-0.30996 -0.566616,-0.45938 -0.748902,-11.10334 -0.101625,-5.93403 -0.222876,-11.2654 -0.269446,-11.84748 -0.04657,-0.58209 -0.09652,-3.77655 -0.110993,-7.09881 l -0.02632,-6.04048 -2.623303,0.18599 c -2.476248,0.17555 -2.642595,0.15509 -2.967442,-0.36507 -0.309542,-0.49566 -0.388549,-0.51087 -0.785888,-0.15128 -0.400468,0.36242 -0.519601,0.3058 -1.274844,-0.60591 -1.391671,-1.67999 -1.35902,-1.91431 0.67407,-4.83729 2.962329,-4.25896 25.445073,-35.90389 27.448281,-38.63403 1.014357,-1.38244 2.127713,-2.90049 2.474129,-3.37343 0.346414,-0.47295 0.85179,-0.8599 1.12306,-0.8599 0.27127,0 3.98591,1.38272 8.25476,3.0727 4.26886,1.68999 8.47593,3.34684 9.34905,3.68188 7.07447,2.71469 13.92922,5.56434 14.7616,6.13667 1.42998,0.98322 31.25905,31.51565 31.35803,32.09744 0.1225,0.72 -1.69026,2.58034 -2.82016,2.89417 -0.53137,0.1476 -1.53759,0.26902 -2.23604,0.26983 -1.37346,0.002 -2.67235,0.52897 -2.92511,1.18765 -0.087,0.2266 -0.1732,4.84468 -0.19166,10.26239 -0.0185,5.41772 -0.11057,11.99352 -0.20469,14.6129 l -0.17113,4.7625 -10.29326,7.73906 c -9.74899,7.32986 -10.35055,7.73737 -11.37708,7.70716 -0.59611,-0.0175 -13.4068,-2.13502 -28.46821,-4.70551 z"
           id="path402" /><path
           style="fill:#edcb23;stroke-width:0.264583"
           d="m 105.47219,202.65105 c -15.061403,-2.5705 -27.638231,-4.81501 -27.948502,-4.98781 -0.556538,-0.30996 -0.566616,-0.45938 -0.748902,-11.10334 -0.101625,-5.93403 -0.222876,-11.2654 -0.269446,-11.84748 -0.04657,-0.58209 -0.09652,-3.77812 -0.110993,-7.1023 l -0.02632,-6.04396 -2.514573,0.18853 c -2.71669,0.20367 -3.301138,0.0217 -3.312144,-1.03144 -0.0057,-0.54982 -0.01718,-0.54822 -0.491509,0.0687 l -0.485626,0.63157 -0.857268,-1.246 c -0.471498,-0.6853 -0.803966,-1.44575 -0.738818,-1.6899 0.06515,-0.24415 2.619576,-3.95626 5.676508,-8.24912 3.056933,-4.29286 6.996636,-9.82927 8.754897,-12.30313 1.758261,-2.47385 3.453151,-4.8551 3.766422,-5.29166 7.830307,-10.91201 10.719385,-14.97236 11.154418,-15.67656 0.292166,-0.47295 0.613503,-0.8599 0.714079,-0.8599 0.100576,0 0.530484,-0.59521 0.955355,-1.32269 0.795684,-1.36239 1.554802,-1.85869 2.064062,-1.34943 0.15997,0.15998 0.5022,0.29087 0.7605,0.29087 0.39519,0 5.43363,1.96886 28.6229,11.18492 l 2.07858,0.82609 15.51621,15.85636 c 8.53392,8.721 15.49968,16.01977 15.47947,16.2195 -0.0202,0.19972 0.0691,0.36313 0.19844,0.36313 0.49998,0 0.19699,0.72696 -0.64187,1.54002 -1.00607,0.97512 -2.14915,1.3704 -3.96299,1.3704 -1.37432,0 -2.67375,0.52662 -2.92685,1.18617 -0.087,0.2266 -0.1732,4.84468 -0.19166,10.26239 -0.0185,5.41772 -0.11057,11.99352 -0.20469,14.61289 l -0.17113,4.7625 -10.29326,7.73907 c -9.74899,7.32986 -10.35055,7.73737 -11.37708,7.70716 -0.59611,-0.0175 -13.4068,-2.13502 -28.46821,-4.70551 z m 0.52917,-20.66259 c 0.30309,-0.19587 0.20931,-0.25304 -0.39687,-0.24193 -0.43657,0.008 -1.03188,0.11686 -1.32292,0.24193 -0.43238,0.1858 -0.35979,0.23005 0.39687,0.24193 0.50933,0.008 1.10464,-0.10086 1.32292,-0.24193 z"
           id="path400" /><path
           style="fill:#eac61b;stroke-width:0.264583"
           d="m 105.47219,202.65105 c -15.061403,-2.5705 -27.638231,-4.81501 -27.948502,-4.98781 -0.556538,-0.30996 -0.566616,-0.45938 -0.748902,-11.10334 -0.101625,-5.93403 -0.222876,-11.2654 -0.269446,-11.84748 -0.04657,-0.58209 -0.09652,-3.77655 -0.110993,-7.09881 l -0.02632,-6.04048 -2.588522,0.18352 c -2.761138,0.19576 -2.996052,0.11623 -3.297143,-1.11618 -0.16005,-0.6551 -0.134953,-0.69622 2.957121,-4.84464 1.246897,-1.67288 3.235667,-4.53038 4.41949,-6.35 1.183823,-1.81963 2.433979,-3.60378 2.778125,-3.96479 0.66613,-0.69876 1.979261,-2.44401 5.388221,-7.16132 2.043943,-2.82841 3.779716,-5.19207 5.608815,-7.6377 0.480412,-0.64235 0.873477,-1.28406 0.873477,-1.42604 0,-0.14198 0.193799,-0.39985 0.430667,-0.57305 0.39207,-0.28669 0.375523,-0.41072 -0.184621,-1.384 l -0.615286,-1.06908 0.713785,-0.84829 c 0.392584,-0.46655 0.713788,-0.99929 0.713788,-1.18385 0,-0.18456 0.235085,-0.54832 0.522412,-0.80835 0.287327,-0.26002 0.601273,-0.72496 0.697661,-1.03319 0.09639,-0.30823 0.456615,-0.89698 0.800505,-1.30832 0.34389,-0.41135 0.629216,-0.8876 0.634058,-1.05834 0.0048,-0.17073 0.245425,-0.59454 0.534633,-0.9418 0.490516,-0.58897 0.557953,-0.6023 1.004218,-0.19844 0.263112,0.23812 0.736904,0.43294 1.052867,0.43294 0.315963,0 0.574479,0.0984 0.574479,0.21876 0,0.12032 0.333029,0.16988 0.740063,0.11014 0.65571,-0.0962 0.97503,0.16765 2.80166,2.31534 1.13388,1.33318 2.13064,2.35492 2.21503,2.27054 0.20091,-0.20092 1.12241,0.63682 1.12241,1.02039 0,0.35308 1.10512,1.51478 2.65987,2.79608 0.61802,0.50932 2.50481,2.30345 4.19284,3.98695 1.68805,1.6835 4.37886,4.31303 5.97959,5.8434 1.60072,1.53036 3.48704,3.45694 4.1918,4.28127 0.74535,0.87181 1.49729,1.4988 1.79749,1.4988 0.28385,0 0.8371,0.29765 1.22945,0.66145 0.39234,0.36381 0.83363,0.66147 0.98063,0.66147 0.14701,1e-5 0.60538,0.42372 1.01859,0.9416 0.41321,0.51787 1.03829,1.05071 1.38906,1.18407 0.35077,0.13336 0.63777,0.41111 0.63777,0.61722 0,0.2061 0.26789,0.45057 0.59531,0.54326 0.32742,0.0927 1.19063,0.8975 1.91823,1.78846 2.31592,2.83591 5.49792,6.37577 7.38867,8.21964 1.50461,1.4673 1.98699,1.78699 2.69637,1.78699 0.47517,0 0.92675,-0.10163 1.00352,-0.22585 0.14621,-0.23657 0.618,-0.28466 10.87186,-1.10817 9.77476,-0.78502 10.0768,-0.74762 8.25107,1.02196 -1.00607,0.97512 -2.14915,1.3704 -3.96299,1.3704 -1.37432,0 -2.67375,0.52662 -2.92685,1.18617 -0.087,0.2266 -0.1732,4.84468 -0.19166,10.26239 -0.0185,5.41772 -0.11057,11.99352 -0.20469,14.6129 l -0.17113,4.7625 -10.29326,7.73906 c -9.74899,7.32986 -10.35055,7.73737 -11.37708,7.70716 -0.59611,-0.0175 -13.4068,-2.13502 -28.46821,-4.70551 z m -6.742877,-8.85738 c 0.26552,-0.63548 0.304229,-1.13761 0.133567,-1.73267 -0.220628,-0.76928 -0.171111,-0.88012 0.604819,-1.35384 0.464815,-0.28378 1.261841,-0.64956 1.771161,-0.81284 0.50932,-0.16328 1.0451,-0.41907 1.19062,-0.56843 0.17987,-0.18462 0.0952,-0.21088 -0.26458,-0.082 -0.29104,0.10424 -1.11577,0.30126 -1.83272,0.43784 -1.277382,0.24332 -4.120404,1.40127 -4.120404,1.67822 0,0.0772 0.342123,0.0719 0.760273,-0.0117 0.597458,-0.11949 0.852432,-0.0205 1.190625,0.46236 0.693301,0.98983 0.554164,1.81882 -0.363398,2.16516 -0.971203,0.36659 -1.028895,0.71276 -0.11879,0.71276 0.516803,0 0.762564,-0.20966 1.048827,-0.89479 z m 7.338197,-11.85055 c 0.87524,-0.44963 0.54416,-1.01299 -0.59532,-1.01299 -0.88194,0 -1.05833,-0.0882 -1.05833,-0.52917 0,-0.29104 -0.17486,-0.52917 -0.38857,-0.52917 -0.2367,0 -0.32905,0.15513 -0.23628,0.39688 0.15666,0.40823 -0.40205,0.50126 -2.89849,0.48259 -0.8358,-0.006 -0.949693,0.0526 -0.66096,0.34129 0.8851,0.8851 2.44393,1.37525 3.91571,1.23122 0.80257,-0.0785 1.66757,-0.24983 1.92224,-0.38065 z m -37.303657,-22.33758 -0.592715,-0.92928 5.468292,-7.69464 c 4.885759,-6.87493 5.492572,-7.629 5.696206,-7.07853 0.244412,0.66071 -0.303313,1.64104 -5.831,10.43641 -1.371848,2.18281 -2.805975,4.47477 -3.18695,5.09323 -0.380975,0.61846 -0.75308,1.11944 -0.8269,1.11328 -0.07382,-0.006 -0.40094,-0.42937 -0.726933,-0.94047 z m 32.342717,-40.05875 c -0.2398,-0.388 0.0918,-0.79375 0.64876,-0.79375 0.49028,0 0.90372,0.60829 0.61183,0.90018 -0.25275,0.25275 -1.08187,0.18275 -1.26059,-0.10643 z m -0.92604,-5.57186 c 0,-0.15411 0.11906,-0.20662 0.26458,-0.11668 0.14552,0.0899 0.26458,0.21603 0.26458,0.2802 0,0.0642 -0.11906,0.11668 -0.26458,0.11668 -0.14552,0 -0.26458,-0.12609 -0.26458,-0.2802 z"
           id="path398" /><path
           style="fill:#d2ab28;stroke-width:0.264583"
           d="m 105.47219,202.65105 c -15.061403,-2.5705 -27.638231,-4.81501 -27.948502,-4.98781 -0.556538,-0.30996 -0.566616,-0.45938 -0.748902,-11.10334 -0.101625,-5.93403 -0.222876,-11.2654 -0.269446,-11.84748 -0.04657,-0.58209 -0.09652,-3.77655 -0.110993,-7.09881 l -0.02632,-6.04048 -2.588522,0.18352 c -2.761138,0.19576 -2.996052,0.11623 -3.297143,-1.11618 -0.164986,-0.67531 -0.278251,-0.49817 4.02885,-6.30097 3.272857,-4.4094 13.725392,-18.77523 19.419849,-26.6904 4.615318,-6.41518 5.823874,-7.95758 6.308179,-8.05067 0.45488,-0.0874 0.96566,0.40703 4.04634,3.91711 0.83017,0.94589 2.06186,2.33273 2.73707,3.08188 0.67522,0.74914 1.82298,2.03832 2.55059,2.86483 0.7276,0.82651 1.85869,2.08048 2.51354,2.78661 0.65484,0.70613 1.84547,2.01489 2.64583,2.90835 0.80036,0.89346 1.99099,2.20315 2.64583,2.91042 0.65485,0.70726 1.84547,2.01331 2.64584,2.90233 0.80036,0.88902 1.99099,2.19337 2.64583,2.89855 0.65484,0.70518 1.84547,2.01302 2.64583,2.90632 0.80037,0.8933 1.99099,2.19858 2.64584,2.90062 4.5723,4.90181 5.9898,6.48462 6.42996,7.17979 0.27564,0.43536 0.59394,0.79155 0.70732,0.79155 0.11338,0 1.32208,1.2476 2.686,2.77245 1.36391,1.52484 2.61425,2.775 2.77852,2.77812 0.16428,0.003 1.06777,-0.80959 2.00776,-1.80603 l 1.70908,-1.81172 1.96099,-0.17466 c 6.33547,-0.56427 15.12134,-1.22495 16.31464,-1.22682 1.66315,-0.003 1.77006,0.3185 0.51201,1.53785 -1.00607,0.97512 -2.14915,1.3704 -3.96299,1.3704 -1.37432,0 -2.67375,0.52662 -2.92685,1.18617 -0.087,0.2266 -0.1732,4.84468 -0.19166,10.26239 -0.0185,5.41772 -0.11057,11.99352 -0.20469,14.61289 l -0.17113,4.7625 -10.29326,7.73907 c -9.74899,7.32986 -10.35055,7.73737 -11.37708,7.70716 -0.59611,-0.0175 -13.4068,-2.13502 -28.46821,-4.70551 z m -6.742877,-8.85738 c 0.264028,-0.63191 0.303927,-1.13865 0.135811,-1.72484 -0.283385,-0.98811 0.09508,-1.31169 2.714286,-2.32067 0.9041,-0.34828 1.28664,-0.57086 0.85007,-0.49462 -3.792982,0.66238 -6.078572,1.59494 -6.476929,2.6427 -0.483079,1.27059 0.486121,2.79222 1.778505,2.79222 0.459343,0 0.723212,-0.23652 0.998257,-0.89479 z m 5.988067,-11.53702 c 0.99184,-0.004 1.79866,-0.52707 3.56877,-2.31498 2.631,-2.65745 3.04229,-7.53024 0.96619,-11.44696 -1.35757,-2.56116 -3.8109,-4.50184 -5.20679,-4.11878 -1.57198,0.43139 -3.40099,3.1562 -3.83029,5.70628 -0.29112,1.72932 -0.19348,3.91161 0.21902,4.89479 0.1221,0.29104 0.37554,0.94589 0.56319,1.45521 0.5137,1.39429 1.48233,2.8445 2.22486,3.33103 0.3643,0.2387 0.66236,0.52686 0.66236,0.64036 0,0.27694 -2.14537,0.47995 -2.64583,0.25036 -0.7309,-0.3353 -2.213052,-0.77398 -2.304857,-0.68217 -0.139637,0.13964 1.728567,1.50813 2.802307,2.05275 0.52677,0.26717 1.19588,0.42952 1.48692,0.36075 0.29105,-0.0688 0.96341,-0.12665 1.49415,-0.12864 z"
           id="path396" /><path
           style="fill:#ae9227;stroke-width:0.264583"
           d="m 106.13365,202.77268 c -14.697603,-2.50335 -27.258697,-4.72132 -27.913541,-4.92882 l -1.190625,-0.37728 -0.0599,-5.02708 c -0.03295,-2.76489 -0.120799,-7.82505 -0.195225,-11.24479 -0.07443,-3.41974 -0.166532,-9.19427 -0.204679,-12.83229 l -0.06936,-6.61459 -2.662753,0.0864 c -3.056646,0.0992 -3.553755,-0.14084 -3.083751,-1.48909 0.350218,-1.00464 28.862161,-40.27224 29.387884,-40.47398 0.27594,-0.10589 0.76294,0.26024 1.48171,1.11397 1.98686,2.35993 32.71315,36.16827 34.72665,38.20996 1.09758,1.11295 2.41201,2.52956 2.92095,3.14803 0.50894,0.61846 1.05703,1.12448 1.21798,1.12448 0.16095,0 1.12887,-0.82008 2.15094,-1.82239 l 1.85831,-1.82239 5.95312,-0.55416 c 13.06515,-1.21618 12.95429,-1.20886 13.28539,-0.87776 0.24116,0.24117 0.10612,0.52679 -0.5874,1.24231 -1.00438,1.03626 -2.15606,1.44946 -4.04602,1.45166 -1.37346,0.002 -2.67235,0.52897 -2.92511,1.18765 -0.087,0.2266 -0.1732,4.84468 -0.19166,10.26239 -0.0185,5.41772 -0.11057,11.99352 -0.20469,14.61289 l -0.17113,4.7625 -10.29326,7.73907 c -9.75009,7.33068 -10.35044,7.73736 -11.37708,7.70694 -0.59611,-0.0177 -13.10914,-2.08031 -27.80675,-4.58366 z m -7.82458,-8.01807 c 0.312629,-0.25467 0.729824,-0.93928 0.927098,-1.52136 0.304948,-0.8998 0.661074,-1.2409 2.377382,-2.27708 2.46725,-1.48954 2.42695,-1.44971 1.99421,-1.97113 -0.38487,-0.46374 -0.46879,-0.45454 -3.52096,0.38601 -3.969467,1.09317 -5.016981,2.03696 -4.433493,3.99449 0.158419,0.53149 0.589841,1.12032 1.012561,1.38203 0.920435,0.56983 0.952137,0.56996 1.643202,0.007 z m 6.16134,-12.22308 c 3.25855,-0.53374 6.04204,-3.76287 6.41413,-7.44104 0.25984,-2.56851 -0.2515,-5.06246 -1.46083,-7.12495 -1.07989,-1.84172 -2.88588,-3.48607 -4.36481,-3.97417 -0.84826,-0.27995 -0.97838,-0.23825 -2.08429,0.66796 -2.43287,1.99356 -3.621663,5.68802 -3.073544,9.55179 0.146684,1.03398 0.337214,2.06373 0.423404,2.28834 0.25706,0.66988 -0.28967,0.76468 -2.050015,0.35548 -0.916191,-0.21297 -1.76444,-0.29062 -1.884995,-0.17255 -0.344633,0.33751 0.989394,2.686 2.179918,3.83764 0.925356,0.89513 3.272152,2.16824 4.124692,2.23759 0.14552,0.0118 0.94488,-0.0899 1.77634,-0.22609 z"
           id="path394" /><path
           style="fill:#ad6322;stroke-width:0.264583"
           d="m 106.04267,202.49138 c -15.620763,-2.65998 -28.493315,-4.93827 -28.605665,-5.06286 -0.220391,-0.24439 -0.817398,-25.63766 -0.809321,-34.42391 0.0031,-3.39877 -0.09182,-5.35782 -0.259658,-5.35782 -0.303506,0 -0.327977,0.13989 -0.367707,2.10192 l -0.02917,1.44047 -1.058334,0.22362 c -0.582083,0.12299 -1.713177,0.18915 -2.513541,0.14703 -1.445907,-0.0761 -1.454612,-0.0816 -1.36191,-0.86689 0.104574,-0.88583 28.766828,-40.61698 29.301296,-40.61698 0.16901,0 0.7667,0.56555 1.32821,1.25677 1.51342,1.86305 32.20264,35.64731 34.11559,37.55618 0.90336,0.90144 2.26956,2.35996 3.03599,3.24114 0.76644,0.88119 1.52856,1.60216 1.69361,1.60216 0.16505,0 0.95086,-0.66402 1.74626,-1.47559 0.79539,-0.81158 1.75064,-1.63621 2.12278,-1.83251 0.38212,-0.20157 3.20353,-0.59832 6.48229,-0.91155 3.19312,-0.30505 7.19614,-0.68705 8.8956,-0.8489 1.69946,-0.16184 3.29594,-0.21521 3.54774,-0.11858 0.40409,0.15506 0.36926,0.26812 -0.29675,0.96329 -0.8431,0.88 -2.07792,1.30975 -3.76972,1.31195 -1.49122,0.002 -2.91954,0.62024 -3.18267,1.37774 -0.11619,0.33446 -0.24634,4.95389 -0.28923,10.2654 -0.0429,5.31151 -0.15543,11.85995 -0.25009,14.55208 l -0.17212,4.89479 -10.29325,7.73907 c -5.66129,4.25648 -10.36426,7.72539 -10.45104,7.70869 -0.0868,-0.0167 -12.93842,-2.20672 -28.55919,-4.86671 z m -6.804126,-8.40695 c 0.414004,-0.76019 1.086006,-1.30688 2.794066,-2.27307 1.81709,-1.02786 2.26473,-1.40407 2.33108,-1.95909 0.06,-0.50144 -0.10377,-0.80872 -0.6063,-1.138 -0.65967,-0.43223 -0.79015,-0.42075 -3.12483,0.27486 -3.989931,1.18878 -4.881712,1.64816 -5.226278,2.69221 -0.593469,1.79822 0.640609,3.60053 2.377053,3.47158 0.749975,-0.0557 1.00601,-0.24369 1.455209,-1.06849 z m 5.704486,-11.43476 c 1.61725,-0.21927 3.81226,-1.9382 4.97272,-3.89418 2.95791,-4.98558 0.49256,-12.84095 -4.67953,-14.91041 l -1.08033,-0.43226 -1.3047,1.09235 c -1.879,1.57319 -2.78954,3.3464 -3.203473,6.2385 -0.187447,1.30969 -0.412139,2.51769 -0.499314,2.68444 -0.147347,0.28186 -1.817087,-0.1119 -3.570367,-0.84196 -0.475136,-0.19784 -0.491387,-0.10665 -0.30965,1.73768 0.243628,2.47245 1.354857,4.70339 3.15881,6.34171 1.35273,1.22854 3.865284,2.40107 4.796034,2.23817 0.29105,-0.0509 1.06495,-0.16525 1.7198,-0.25404 z"
           id="path392" /><path
           style="fill:#ac611e;stroke-width:0.264583"
           d="m 134.6066,206.42313 c -0.31034,-0.68113 -0.3134,-0.68172 -0.77509,-0.14938 -0.46301,0.53385 -0.46646,0.53387 -3.10048,0.022 -1.45033,-0.28184 -3.06327,-0.56293 -3.5843,-0.62466 -1.41508,-0.16764 -12.10084,-1.95517 -13.47245,-2.25368 -0.65485,-0.14252 -3.7877,-0.67905 -6.96191,-1.19229 -3.1742,-0.51324 -5.91205,-0.96044 -6.08412,-0.99378 -0.17206,-0.0333 -0.52003,-0.38804 -0.773269,-0.78822 -0.359686,-0.56841 -0.663896,-0.72761 -1.390357,-0.72761 -0.511463,0 -0.929931,-0.0895 -0.929931,-0.19889 0,-0.10939 -0.535781,-0.48312 -1.190625,-0.83052 -0.727739,-0.38606 -1.190625,-0.81448 -1.190625,-1.10197 0,-0.2587 -0.148828,-0.52543 -0.330729,-0.59274 -0.474104,-0.17545 -3.935921,0.079 -4.564063,0.33543 -2.687327,1.09719 -5.47693,1.50727 -5.996297,0.88147 -0.192597,-0.23207 -0.781526,-0.34393 -1.649539,-0.31331 -1.881142,0.0664 -3.861764,-0.27452 -4.580725,-0.78837 -0.550328,-0.39333 -0.603407,-0.62573 -0.56893,-2.49101 0.02091,-1.13146 0.08144,-2.01379 0.134508,-1.96072 0.24827,0.24827 2.134147,-1.93326 2.587837,-2.99353 1.270965,-2.97025 1.557355,-3.56701 2.266374,-4.72244 0.415358,-0.67688 0.843405,-1.58788 0.951216,-2.02444 0.310816,-1.25859 1.119604,-2.56605 2.243901,-3.6274 0.571879,-0.53988 1.03978,-1.20537 1.03978,-1.4789 0,-0.50203 -0.976707,-1.11142 -1.781334,-1.11142 -0.238435,0 -0.68078,-0.23229 -0.982988,-0.5162 -0.500993,-0.47066 -0.719104,-0.49269 -2.47221,-0.24975 -1.057507,0.14655 -2.422571,0.23001 -3.033476,0.18547 l -1.110736,-0.081 -0.04968,-2.04877 c -0.02733,-1.12683 0.05002,-2.1104 0.171868,-2.18571 0.121853,-0.0753 1.213081,-0.2624 2.424951,-0.41577 1.211871,-0.15336 3.036838,-0.49627 4.055484,-0.76201 1.592585,-0.41547 3.412778,-0.83559 6.225614,-1.43694 0.604589,-0.12925 0.659509,-0.24644 0.567521,-1.21101 l -0.101841,-1.06791 h -1.19357 c -1.079572,0 -1.361203,-0.14808 -2.948771,-1.55049 -0.965361,-0.85277 -2.164568,-1.76038 -2.664904,-2.01692 -0.500336,-0.25654 -1.542133,-1.09887 -2.315104,-1.87184 -1.064039,-1.06404 -1.405403,-1.59552 -1.405403,-2.1881 0,-0.45166 0.167858,-0.84711 0.396875,-0.935 0.56904,-0.21836 0.490516,-0.96265 -0.101563,-0.96265 -0.492356,0 -1.343162,1.71812 -1.731397,3.4964 -0.133636,0.61211 -1.265387,2.05985 -1.610254,2.05985 -0.06153,0 -0.145412,-1.36514 -0.186411,-3.03364 -0.06433,-2.6182 -0.128891,-2.99992 -0.471417,-2.78745 -0.293823,0.18225 -0.396875,0.74575 -0.396875,2.17013 0,1.92339 -2.31e-4,1.924 -0.79375,2.09469 -1.027734,0.22108 -3.967844,0.27836 -4.165055,0.0811 -0.416407,-0.41641 0.686047,-2.19553 5.332274,-8.60513 2.784977,-3.84196 5.754277,-7.93788 6.598445,-9.10204 0.844168,-1.16417 4.844641,-6.70057 8.889939,-12.30313 4.045297,-5.60255 7.642916,-10.48411 7.994709,-10.84791 l 0.639613,-0.66146 0.50621,0.66146 c 0.27841,0.3638 0.5413,0.86059 0.5842,1.10398 0.0429,0.24338 6.32878,7.31569 13.96862,15.71623 7.63984,8.40054 14.34118,15.8214 14.89186,16.49081 1.43411,1.74329 4.5049,4.79038 4.81829,4.7811 0.14624,-0.004 1.41887,1.21606 2.82806,2.71198 l 2.56217,2.71985 1.93575,-1.88974 c 2.24685,-2.19346 1.1205,-1.90802 11.32845,-2.87086 7.43201,-0.70101 9.52501,-0.79877 9.52501,-0.44489 0,0.42603 -1.25113,1.38539 -2.1387,1.63994 -0.49529,0.14205 -1.41115,0.25826 -2.03524,0.25826 -1.26822,0 -2.65742,0.49461 -3.18876,1.13531 -0.27671,0.33368 -0.3446,2.15268 -0.31998,8.5738 0.0172,4.48265 -0.051,11.08528 -0.15148,14.67251 l -0.18273,6.52224 -9.93425,7.50068 c -5.46383,4.12537 -10.07203,7.58616 -10.24044,7.69065 -0.18472,0.1146 -0.42981,-0.0813 -0.61777,-0.49385 z m -0.0164,-3.53259 c 0.13634,-3.63575 -0.0139,-7.70412 -0.27844,-7.54062 -0.16066,0.0993 -0.26459,2.04886 -0.26459,4.96332 0,2.87022 0.0962,4.69876 0.23927,4.54845 0.1316,-0.13825 0.26829,-1.02526 0.30376,-1.97115 z m -34.867912,-7.75781 c 0.548342,-0.23171 1.054932,-0.42509 1.125742,-0.42975 0.0708,-0.005 0.55944,-0.18843 1.08584,-0.40837 0.5264,-0.21995 1.22176,-0.3999 1.54523,-0.3999 0.32348,0 0.81496,-0.2563 1.09217,-0.56956 l 0.50403,-0.56956 -0.90868,0.17583 c -0.49978,0.0967 -1.11735,0.36467 -1.37239,0.59548 -0.25504,0.2308 -0.56905,0.35455 -0.69779,0.27498 -0.12875,-0.0796 -0.56658,0.0278 -0.97296,0.23866 -0.9265,0.48068 -1.736724,0.49349 -1.736724,0.0275 0,-0.50149 0.696854,-1.05688 2.381254,-1.89785 0.80036,-0.3996 1.74639,-1.01555 2.10229,-1.36877 0.45655,-0.45313 0.8266,-0.59717 1.25677,-0.4892 0.92075,0.23109 0.76348,-0.43058 -0.31636,-1.33093 -0.55214,-0.46038 -0.92604,-1.01105 -0.92604,-1.36388 0,-0.40914 -0.20232,-0.64253 -0.65563,-0.75631 -0.51845,-0.13012 -0.79945,0.006 -1.34294,0.65226 -0.546,0.64889 -1.30342,1.01432 -3.684134,1.77748 l -2.99683,0.96066 -0.289391,1.09402 c -0.255148,0.96456 -0.248592,3.53063 0.0094,3.69862 1.128506,0.73469 3.178477,0.77256 4.797094,0.0886 z M 96.47636,187.677 c 0,-0.21828 -0.178594,-0.39687 -0.396875,-0.39687 -0.218282,0 -0.396875,0.17859 -0.396875,0.39687 0,0.21828 0.178593,0.39688 0.396875,0.39688 0.218281,0 0.396875,-0.1786 0.396875,-0.39688 z m 6.45331,-4.02796 c 0.10533,-0.10533 0.83883,-0.21143 1.63,-0.23577 1.20551,-0.0371 1.59401,-0.18081 2.3987,-0.88734 0.52811,-0.46369 1.23795,-0.96962 1.57742,-1.1243 0.33947,-0.15467 0.85678,-0.79086 1.14957,-1.41374 0.29279,-0.62289 0.79383,-1.31568 1.11343,-1.53953 0.31959,-0.22385 0.60454,-0.62023 0.63321,-0.88085 0.0287,-0.26061 0.14555,-0.69422 0.25972,-0.96356 0.13373,-0.31549 0.0815,-0.56763 -0.14666,-0.70866 -0.2851,-0.1762 -0.29177,-0.35604 -0.0342,-0.92143 0.2571,-0.56428 0.23719,-1.14485 -0.10123,-2.95089 -0.23173,-1.23662 -0.35688,-2.41631 -0.27813,-2.62153 0.0787,-0.20522 -0.14048,-0.64201 -0.48717,-0.97066 -0.34668,-0.32864 -0.89581,-1.11398 -1.22027,-1.7452 -0.32446,-0.63122 -0.78083,-1.21776 -1.01415,-1.30342 -0.23332,-0.0856 -0.86311,-0.52663 -1.39954,-0.97994 -1.38359,-1.1692 -4.2664,-1.84966 -5.98491,-1.41266 -1.110229,0.28232 -1.171742,0.33483 -0.58039,0.4954 0.3638,0.0988 1.16747,0.11912 1.78594,0.0452 1.41678,-0.16939 1.49828,0.30067 0.22788,1.31433 -1.66701,1.3301 -2.662277,3.60642 -2.984195,6.82524 -0.212135,2.12113 -0.233776,2.13699 -2.12125,1.55462 -1.326041,-0.40914 -1.714153,-0.66073 -2.046274,-1.32648 -0.225422,-0.45187 -0.356841,-0.90737 -0.292039,-1.01221 0.0648,-0.10485 0.222895,-0.86071 0.351324,-1.6797 0.223623,-1.42602 0.210055,-1.48462 -0.320503,-1.38439 -0.304705,0.0576 -0.643305,0.11352 -0.752446,0.12433 -0.10914,0.0108 -0.198437,0.47316 -0.198437,1.02743 0,0.55427 -0.174808,1.23888 -0.388462,1.52135 -0.213651,0.28248 -0.392244,0.84101 -0.396875,1.2412 -0.0046,0.40018 -0.127476,0.7276 -0.272997,0.7276 -0.145521,0 -0.264583,0.17859 -0.264583,0.39687 0,0.21829 0.178594,0.39688 0.396875,0.39688 0.218281,0 0.396875,0.11906 0.396875,0.26458 0,0.14552 -0.119063,0.26459 -0.264583,0.26459 -0.462074,0 -0.285168,0.9231 0.267607,1.3964 0.292706,0.25063 0.638749,0.45568 0.768985,0.45568 0.131469,0 0.113557,0.40154 -0.04027,0.90275 -0.376008,1.22515 -0.111239,1.83789 0.72508,1.67802 0.950952,-0.18179 1.336355,0.39351 0.926496,1.38299 -0.1798,0.43408 -0.257558,0.96997 -0.172794,1.19086 0.174673,0.45519 1.373019,0.54628 1.633877,0.1242 0.240352,-0.3889 0.825489,0.137 1.02154,0.91813 0.16034,0.63885 0.816748,0.93691 2.077129,0.94319 0.43596,0.002 0.85722,0.21473 1.05584,0.53278 0.33104,0.53009 1.00552,0.69696 1.36482,0.33766 z m 31.98808,-5.00509 c 0.13968,-3.66481 -0.12299,-15.44359 -0.34139,-15.30862 -0.16722,0.10335 -0.26458,3.19539 -0.26458,8.40291 0,5.94952 0.0802,8.15919 0.28857,7.95082 0.15871,-0.15872 0.30154,-0.62901 0.3174,-1.04511 z M 96.82293,166.32163 c 0.598659,-0.80184 0.414194,-1.2665 -0.50278,-1.2665 -0.757788,0 -1.03065,0.51022 -0.788609,1.47459 0.20058,0.79917 0.585689,0.73712 1.291389,-0.20809 z m -5.402787,-0.30536 c 0.227087,-0.27362 0.211302,-0.43558 -0.06479,-0.66472 -0.27889,-0.23146 -0.441129,-0.21126 -0.687499,0.0856 -0.319789,0.38532 -0.180747,0.94089 0.235474,0.94089 0.119115,0 0.351682,-0.16279 0.516815,-0.36177 z m 7.849502,-1.86555 c 0.282245,-0.20639 0.42961,-0.45881 0.327475,-0.56095 -0.309501,-0.30949 -1.53326,0.12497 -1.53326,0.54436 0,0.49535 0.540858,0.50279 1.205785,0.0166 z m -8.614119,-11.53101 c 0,-0.57585 -0.865896,-0.72643 -1.580084,-0.27476 -0.422758,0.26735 -0.289405,0.35815 0.918626,0.62545 0.291042,0.0644 0.558932,0.1309 0.595312,0.14778 0.03638,0.0169 0.06615,-0.20743 0.06615,-0.49847 z m -3.175,-0.66146 c 0,-0.3638 0.09045,-0.66146 0.200995,-0.66146 0.110548,0 0.199844,-0.38695 0.198438,-0.85989 -0.0021,-0.69126 0.114194,-0.87648 0.592755,-0.94445 0.371983,-0.0528 0.595312,-0.26788 0.595312,-0.57326 0,-0.26879 0.12545,-0.53053 0.278776,-0.58164 0.190013,-0.0633 0.195352,-0.30203 0.01677,-0.74965 -0.25519,-0.63965 -0.262443,-0.64125 -0.278775,-0.0614 -0.0092,0.32742 -0.168853,0.59531 -0.354729,0.59531 -0.366509,0 -1.778713,1.49206 -1.778713,1.87929 0,0.13056 -0.200685,0.23738 -0.445968,0.23738 -0.598132,0 -1.670698,1.03631 -1.670698,1.61422 0,0.25501 -0.20836,0.5181 -0.463021,0.58464 -0.254662,0.0666 0.340651,0.13482 1.322917,0.1517 1.736795,0.0298 1.785937,0.0125 1.785937,-0.63077 z m 8.202084,-21.56354 c 0,-0.14552 -0.119063,-0.26458 -0.264584,-0.26458 -0.14552,0 -0.264583,0.11906 -0.264583,0.26458 0,0.14552 0.119063,0.26458 0.264583,0.26458 0.145521,0 0.264584,-0.11906 0.264584,-0.26458 z m 2.910416,-3.96875 c 0,-0.14552 -0.119062,-0.26458 -0.264583,-0.26458 -0.145521,0 -0.264583,0.11906 -0.264583,0.26458 0,0.14552 0.119062,0.26458 0.264583,0.26458 0.145521,0 0.264583,-0.11906 0.264583,-0.26458 z m 0.79375,-1.05833 c 0,-0.14552 -0.119062,-0.26459 -0.264583,-0.26459 -0.145521,0 -0.264583,0.11907 -0.264583,0.26459 0,0.14552 0.119062,0.26458 0.264583,0.26458 0.145521,0 0.264583,-0.11906 0.264583,-0.26458 z m -22.149326,58.6052 c 0.002,-0.7276 0.05337,-0.99385 0.114186,-0.59167 0.06082,0.40218 0.05919,0.9975 -0.0036,1.32292 -0.0628,0.32542 -0.11256,-0.004 -0.110574,-0.73125 z"
           id="path390" /><path
           style="fill:#604b1a;stroke-width:0.264583"
           d="m 134.84119,198.60421 c 3.9e-4,-13.62816 0.33607,-39.89908 0.50981,-39.89908 0.0873,0 1.22108,1.19062 2.51948,2.64583 1.2984,1.45521 2.48457,2.64583 2.63593,2.64583 0.15137,0 1.11288,-0.83207 2.13669,-1.84905 l 1.86148,-1.84905 8.42826,-0.79678 c 11.11236,-1.05053 11.21582,-1.0482 9.86401,0.22175 -0.74841,0.70309 -2.02722,1.09813 -3.55484,1.09813 -1.26822,0 -2.65742,0.49461 -3.18876,1.13531 -0.27671,0.33368 -0.3446,2.15268 -0.31998,8.5738 0.0172,4.48265 -0.051,11.08528 -0.15148,14.67251 l -0.18273,6.52224 -9.93425,7.50068 c -5.46383,4.12537 -10.08941,7.59588 -10.27906,7.71226 -0.2806,0.17219 -0.34476,-1.3796 -0.34456,-8.33438 z m -35.454414,-4.5362 c 0,-0.51305 0.654674,-1.00313 3.018054,-2.25925 1.16063,-0.61687 2.19289,-1.01103 2.31858,-0.88533 0.12569,0.12569 0.0985,0.59398 -0.0611,1.05184 -0.25285,0.72533 -0.55935,0.92357 -2.53085,1.63694 -2.536553,0.91783 -2.744654,0.95239 -2.744654,0.4558 z m -2.513541,-21.77143 c -1.914438,-0.58511 -2.017755,-0.74579 -1.606317,-2.49825 0.527333,-2.2461 2.034077,-4.34102 3.967501,-5.51627 0.928731,-0.56454 4.121111,-1.02552 4.121111,-0.59509 0,0.14921 -0.40419,0.60739 -0.89821,1.01817 -1.08642,0.90337 -2.38972,3.05431 -2.617537,4.31994 -0.09156,0.50866 -0.245952,1.28203 -0.343085,1.71859 -0.09714,0.43656 -0.2007,1.03187 -0.230143,1.32291 -0.06855,0.6776 -0.723027,0.7405 -2.39332,0.23 z M 71.012346,161.46334 c -0.416682,-0.41669 0.68257,-2.19571 5.238012,-8.47717 2.731765,-3.76682 5.742725,-7.92031 6.691023,-9.23 1.906477,-2.63303 2.25321,-3.10977 6.831225,-9.39271 1.749539,-2.40109 4.114692,-5.67531 5.25589,-7.27604 1.141201,-1.60073 2.779594,-3.84232 3.640873,-4.98132 l 1.565961,-2.07089 0.64296,0.60403 c 0.35363,0.33222 0.60919,0.74335 0.56791,0.91362 -0.0413,0.17028 -5.670986,7.94742 -12.510466,17.28255 -6.839479,9.33513 -12.538039,17.29731 -12.663468,17.69373 -0.125427,0.39643 -0.24449,1.61237 -0.264583,2.70209 -0.03644,1.97651 -0.03846,1.98173 -0.830282,2.15151 -1.029132,0.22066 -3.968116,0.27753 -4.165055,0.0806 z"
           id="path388" /></g></g></g></svg>
