<?xml version="1.0" encoding="UTF-8" standalone="no"?>
<svg
   clip-rule="evenodd"
   fill-rule="evenodd"
   stroke-linejoin="round"
   stroke-miterlimit="2"
   viewBox="0 0 64 64"
   version="1.1"
   id="svg4"
   sodipodi:docname="icon.svg"
   inkscape:version="1.2.1 (9c6d41e410, 2022-07-14)"
   width="64"
   height="64"
   xmlns:inkscape="http://www.inkscape.org/namespaces/inkscape"
   xmlns:sodipodi="http://sodipodi.sourceforge.net/DTD/sodipodi-0.dtd"
   xmlns="http://www.w3.org/2000/svg"
   xmlns:svg="http://www.w3.org/2000/svg">
  <defs
     id="defs8" />
  <sodipodi:namedview
     id="namedview6"
     pagecolor="#ffffff"
     bordercolor="#666666"
     borderopacity="1.0"
     inkscape:showpageshadow="2"
     inkscape:pageopacity="0.0"
     inkscape:pagecheckerboard="0"
     inkscape:deskcolor="#d1d1d1"
     showgrid="false"
     inkscape:zoom="9.1923882"
     inkscape:cx="20.397311"
     inkscape:cy="28.229878"
     inkscape:window-width="1920"
     inkscape:window-height="1011"
     inkscape:window-x="0"
     inkscape:window-y="32"
     inkscape:window-maximized="1"
     inkscape:current-layer="svg4" />
  <path
     style="fill:#ffffff;stroke:none;stroke-width:1px;stroke-linecap:butt;stroke-linejoin:miter;stroke-opacity:1;fill-opacity:1"
     d="m 9.276766,8.6065962 7.709878,-3.9229533 20.44033,-0.3666005 13.643152,2.2148179 4.10711,8.2620297 -1.057712,21.205206 -1.309259,20.838509 -15.191947,4.44265 -22.622736,-1.947671 c 0,0 -5.5955955,-8.813259 -5.4984626,-9.567926 C 9.5942523,49.009991 9.276766,8.6065962 9.276766,8.6065962 Z"
     id="path7127" />
  <g
     id="g9558"
     transform="matrix(20.475123,0,0,20.475123,-688.32671,-489.3486)">
    <path
       d="m 34.815233,26.852033 c -0.415335,-0.04938 -0.626091,-0.108078 -0.712708,-0.198486 l -0.04273,-0.0446 0.0042,-1.160245 0.0042,-1.160244 0.07576,-0.05063 c 0.166914,-0.111553 0.536381,-0.173268 1.036768,-0.173179 0.547749,9.7e-5 0.951098,0.07715 1.080323,0.206373 l 0.04032,0.04032 v 1.152421 1.152421 l -0.05266,0.04431 c -0.154572,0.130063 -0.55456,0.203978 -1.080995,0.19976 -0.16703,-0.0013 -0.325617,-0.005 -0.352415,-0.0082 z m 0.93386,-0.07822 c 0.191001,-0.0325 0.310363,-0.06632 0.408901,-0.115875 0.122727,-0.249632 0.09456,-0.679743 0.09456,-1.196921 v -0.99627 l -0.253109,0.204528 c -0.505306,0.169498 -1.001141,0.321618 -1.459999,0.07427 -0.07509,-0.01607 -0.285976,-0.207621 -0.337339,-0.232971 l -0.09339,-0.0461 v 0.996066 c -0.04379,0.705295 -0.0795,1.242904 0.667412,1.335879 0.199868,0.02249 0.788064,0.0088 0.972938,-0.02267 z m 0.186903,-2.583161 c -0.484449,-0.12289 -1.40137,-0.09 -1.705526,0.06118 -0.133369,0.06629 -0.08219,0.207816 -0.0011,0.265579 0.116112,0.126554 0.58087,0.297382 0.92008,0.297016 0.976902,-0.04246 1.295141,-0.484673 0.786546,-0.623775 z m -1.187825,0.27487 c -0.088,-0.470666 0.941859,-0.445319 0.899353,-0.107584 -0.111503,0.03823 0.01675,0.192071 -0.496681,0.209869 -0.13672,-0.0066 -0.257605,-0.01822 -0.402672,-0.102285 z m 0.825352,-0.0158 c 0.406448,-0.250346 -0.523982,-0.269952 -0.666112,-0.249841 -0.608844,0.318662 0.293504,0.444551 0.590956,0.28744 z"
       style="fill:#800080;stroke:#800080;stroke-width:0.2;stroke-dasharray:none;stroke-opacity:1"
       id="path2224"
       sodipodi:nodetypes="cscccssscccscccccccccsccccccsccccccccccc" />
    <path
       style="fill:none;stroke:#800080;stroke-width:0.264583px;stroke-linecap:round;stroke-linejoin:miter;stroke-opacity:1"
       d="m 34.70502,24.831605 -0.0023,0.483963"
       id="path6750-7-56-2-9-2-9-0-1-9"
       inkscape:transform-center-x="0.05292825"
       inkscape:transform-center-y="0.35831855" />
    <path
       style="fill:none;stroke:#800080;stroke-width:0.264583px;stroke-linecap:round;stroke-linejoin:miter;stroke-opacity:1"
       d="m 35.625866,24.837018 -0.0023,0.483963"
       id="path6750-7-56-2-9-2-9-0-1-9-2"
       inkscape:transform-center-x="0.05292825"
       inkscape:transform-center-y="0.35831855" />
    <path
       style="fill:none;stroke:#800080;stroke-width:0.264583px;stroke-linecap:round;stroke-linejoin:miter;stroke-opacity:1"
       d="m 34.68006,25.715703 -0.0023,0.483963"
       id="path6750-7-56-2-9-2-9-0-1-9-0"
       inkscape:transform-center-x="0.05292825"
       inkscape:transform-center-y="0.35831855" />
    <path
       style="fill:none;stroke:#800080;stroke-width:0.264583px;stroke-linecap:round;stroke-linejoin:miter;stroke-opacity:1"
       d="m 35.586565,25.709667 -0.0023,0.483963"
       id="path6750-7-56-2-9-2-9-0-1-9-23"
       inkscape:transform-center-x="0.05292825"
       inkscape:transform-center-y="0.35831855" />
    <path
       style="fill:none;stroke:#800080;stroke-width:0.264583px;stroke-linecap:round;stroke-linejoin:miter;stroke-opacity:1"
       d="m 34.8809,26.482749 c 0,0 0.161486,0.05455 0.24524,0.05469 0.08147,1.38e-4 0.238723,-0.05239 0.238723,-0.05239 m -0.262096,-0.125934"
       id="path6750-7-56-2-9-2-9-0-1-9-23-7"
       inkscape:transform-center-x="-0.35831825"
       inkscape:transform-center-y="0.05292805"
       sodipodi:nodetypes="cac" />
    <path
       style="fill:none;stroke:#800080;stroke-width:0.264583px;stroke-linecap:round;stroke-linejoin:miter;stroke-opacity:1"
       d="m 34.886584,26.059936 c 0,0 0.161486,-0.05455 0.24524,-0.05469 0.08147,-1.38e-4 0.238723,0.05239 0.238723,0.05239 m -0.262096,0.125934"
       id="path6750-7-56-2-9-2-9-0-1-9-23-7-2"
       inkscape:transform-center-x="-0.35831825"
       inkscape:transform-center-y="-0.052928221"
       sodipodi:nodetypes="cac" />
  </g>
</svg>
