<?xml version="1.0" encoding="UTF-8" standalone="no"?>
<svg
   height="80"
   viewBox="0 0 80 80"
   width="80"
   version="1.1"
   id="svg7193"
   sodipodi:docname="icon.svg"
   inkscape:version="1.2.1 (9c6d41e410, 2022-07-14, custom)"
   xmlns:inkscape="http://www.inkscape.org/namespaces/inkscape"
   xmlns:sodipodi="http://sodipodi.sourceforge.net/DTD/sodipodi-0.dtd"
   xmlns="http://www.w3.org/2000/svg"
   xmlns:svg="http://www.w3.org/2000/svg">
  <defs
     id="defs7197" />
  <sodipodi:namedview
     id="namedview7195"
     pagecolor="#ffffff"
     bordercolor="#666666"
     borderopacity="1.0"
     inkscape:showpageshadow="2"
     inkscape:pageopacity="0.0"
     inkscape:pagecheckerboard="0"
     inkscape:deskcolor="#d1d1d1"
     showgrid="false"
     inkscape:zoom="26"
     inkscape:cx="13.596154"
     inkscape:cy="10.942308"
     inkscape:window-width="1920"
     inkscape:window-height="1011"
     inkscape:window-x="0"
     inkscape:window-y="32"
     inkscape:window-maximized="1"
     inkscape:current-layer="svg7193" />
  <g
     id="g7318"
     transform="matrix(5,0,0,5,0.03615696,-0.00313482)">
    <path
       d="M 7.9629,1.002 C 7.82036,1.00687 7.68052,1.04216 7.55274,1.10552 l -6,3 C 1.21396,4.27496 0.99998,4.62126 1.00001,5.00005 v 5.832 c -0.105,0.61631 0.37487,1.1768 1,1.168 h 5 v 2 c 2.16e-5,0.67546 0.64487,1.1297 1.2617,0.95898 C 8.10053,14.67182 7.99999,14.34768 7.99999,14.00005 v -2 c 0,-0.72673 0.40794,-1.3664 1,-1.7168 v -1.666 l 4,-2 v 1.3828 h 1 c 0.36397,0 0.70348,0.10774 1,0.2832 v -3.2773 c 6e-6,-0.00195 6e-6,-0.00391 0,-0.00586 C 15.000016,4.6213 14.78604,4.275 14.44726,4.10556 l -6,-3 C 8.29704,1.0309866 8.13047,0.9953906 7.96288,1.0020406 Z m 0.037109,2.1172 3.7637,1.8809 -2.7637,1.3809 V 5.0001 c -5.52e-5,-0.55226 -0.44774,-0.99994 -1,-1 h -1.7617 l 1.7617,-0.88086 z m -5,2.8809 h 4 v 4 h -4 z"
       fill="#fc7f7f"
       id="path7189" />
    <path
       d="m 12,9 c -0.55401,0 -1,0.44599 -1,1 v 1 h 2 v 2 h 1 c 0.55401,0 1,-0.44599 1,-1 V 10 C 15,9.44599 14.55401,9 14,9 Z m 1,4 h -2 v -2 h -1 c -0.55401,0 -1,0.44599 -1,1 v 2 c 0,0.55401 0.44599,1 1,1 h 2 c 0.55401,0 1,-0.44599 1,-1 z"
       fill="#5fb2ff"
       id="path7191" />
  </g>
</svg>
