<?xml version="1.0" encoding="UTF-8" standalone="no"?>
<svg
   height="80"
   viewBox="0 0 80 80"
   width="80"
   version="1.1"
   id="svg168"
   sodipodi:docname="icon.svg"
   inkscape:version="1.2.1 (9c6d41e410, 2022-07-14, custom)"
   xmlns:inkscape="http://www.inkscape.org/namespaces/inkscape"
   xmlns:sodipodi="http://sodipodi.sourceforge.net/DTD/sodipodi-0.dtd"
   xmlns="http://www.w3.org/2000/svg"
   xmlns:svg="http://www.w3.org/2000/svg">
  <defs
     id="defs172" />
  <sodipodi:namedview
     id="namedview170"
     pagecolor="#ffffff"
     bordercolor="#666666"
     borderopacity="1.0"
     inkscape:showpageshadow="2"
     inkscape:pageopacity="0.0"
     inkscape:pagecheckerboard="0"
     inkscape:deskcolor="#d1d1d1"
     showgrid="false"
     inkscape:zoom="37.918601"
     inkscape:cx="11.986202"
     inkscape:cy="7.9512427"
     inkscape:window-width="1920"
     inkscape:window-height="1011"
     inkscape:window-x="0"
     inkscape:window-y="32"
     inkscape:window-maximized="1"
     inkscape:current-layer="svg168" />
  <g
     id="g7133"
     transform="matrix(5,0,0,5,0,0.75)">
    <path
       d="m 8,0.700052 c -3.8541,0 -7,3.1459 -7,7 3.3869507,1.842784 9.899967,1.68425 13.98633,0.275338 C 14.98993,7.88321 15,7.79304 15,7.7 15,3.8459 11.8541,0.7 8,0.7 Z m -1,2.0977 v 4.8711 C 5.7069,7.597512 4.3939,7.370662 3.0566,6.977442 3.35741,4.879642 4.9418,3.210942 7,2.797742 Z m 2,0 c 2.0549,0.41253 3.637,2.0767 3.9414,4.1699 -1.3046,0.36677 -2.6158,0.60259 -3.9414,0.6875 z"
       fill="#fc7f7f"
       id="path164"
       sodipodi:nodetypes="cccsccccccccccc" />
    <path
       d="m 12,9 c -0.55401,0 -1,0.44599 -1,1 v 1 h 2 v 2 h 1 c 0.55401,0 1,-0.44599 1,-1 V 10 C 15,9.44599 14.55401,9 14,9 Z m 1,4 h -2 v -2 h -1 c -0.55401,0 -1,0.44599 -1,1 v 2 c 0,0.55401 0.44599,1 1,1 h 2 c 0.55401,0 1,-0.44599 1,-1 z"
       fill="#5fb2ff"
       id="path166" />
  </g>
</svg>
