<?xml version="1.0" encoding="UTF-8" standalone="no"?>
<svg
   clip-rule="evenodd"
   fill-rule="evenodd"
   stroke-linejoin="round"
   stroke-miterlimit="2"
   viewBox="0 0 64 64"
   version="1.1"
   id="svg4"
   sodipodi:docname="icon.svg"
   inkscape:version="1.2.1 (9c6d41e410, 2022-07-14)"
   xml:space="preserve"
   width="64"
   height="64"
   xmlns:inkscape="http://www.inkscape.org/namespaces/inkscape"
   xmlns:sodipodi="http://sodipodi.sourceforge.net/DTD/sodipodi-0.dtd"
   xmlns="http://www.w3.org/2000/svg"
   xmlns:svg="http://www.w3.org/2000/svg"><defs
     id="defs8"><inkscape:perspective
       sodipodi:type="inkscape:persp3d"
       inkscape:vp_x="-0.027046275 : 48.333333 : 1"
       inkscape:vp_y="0.5 : -14.166667 : 1"
       inkscape:vp_z="0.94201819 : 48.046283 : 1"
       inkscape:persp3d-origin="0.5 : 48.333333 : 1"
       id="perspective539" /></defs><sodipodi:namedview
     id="namedview6"
     pagecolor="#ffffff"
     bordercolor="#666666"
     borderopacity="1.0"
     inkscape:showpageshadow="2"
     inkscape:pageopacity="0.0"
     inkscape:pagecheckerboard="0"
     inkscape:deskcolor="#d1d1d1"
     showgrid="false"
     inkscape:zoom="3.25"
     inkscape:cx="-61.384615"
     inkscape:cy="11.538461"
     inkscape:window-width="1920"
     inkscape:window-height="1011"
     inkscape:window-x="0"
     inkscape:window-y="32"
     inkscape:window-maximized="1"
     inkscape:current-layer="svg4" /><g
     id="g1875"
     transform="translate(23.999999,23.999998)"><path
       style="fill:#ffffff;fill-opacity:1;stroke:none;stroke-width:4px;stroke-linecap:butt;stroke-linejoin:miter;stroke-opacity:1"
       d="M -19.814933,26.650598 7.7040257,-15.93226 36.253183,25.827702 28.222279,31.804274 1.1669069,33.636946 Z"
       id="path1131" /><g
       id="g9510"
       transform="matrix(18.724979,0,0,18.724979,-195.24045,-471.74855)"
       style="fill:none;fill-opacity:1"><path
         d="m 10.591318,26.985537 c -0.647753,-0.02906 -1.148143,-0.172744 -1.243452,-0.357051 -0.0206,-0.03983 -0.02261,-0.0599 -0.009,-0.08978 0.0096,-0.02117 0.135797,-0.219312 0.28034,-0.440322 0.375596,-0.574297 0.697441,-1.066276 1.091506,-1.668498 0.06424,-0.09817 0.127605,-0.18038 0.14081,-0.18268 0.01419,-0.0025 0.05024,0.03733 0.08813,0.09729 0.03527,0.05581 0.176742,0.273225 0.314383,0.483143 0.137642,0.209918 0.319495,0.487643 0.404118,0.617166 0.08462,0.129524 0.28108,0.429175 0.436569,0.66589 0.155489,0.236716 0.2828,0.436597 0.282912,0.444179 1.14e-4,0.0076 -0.01202,0.03954 -0.02695,0.07101 -0.08484,0.17878 -0.600004,0.332397 -1.190935,0.355124 -0.111658,0.0043 -0.228595,0.0096 -0.25986,0.01181 -0.03126,0.0022 -0.170126,-0.0011 -0.308583,-0.0073 z m 0.92575,-0.08638 c 0.360728,-0.05534 0.622,-0.140865 0.743036,-0.243225 0.06598,-0.0558 0.06728,-0.103316 0.0045,-0.164915 -0.02655,-0.02605 -0.04847,-0.05772 -0.04872,-0.07038 -4.45e-4,-0.02265 -0.05676,-0.112071 -0.41512,-0.659124 -0.09947,-0.151856 -0.300096,-0.458815 -0.445831,-0.682132 -0.145735,-0.223316 -0.316346,-0.484597 -0.379137,-0.580623 -0.06279,-0.09603 -0.118343,-0.174485 -0.123451,-0.174353 -0.0051,1.31e-4 -0.06745,0.08966 -0.138529,0.198955 -0.171363,0.263478 -0.458958,0.703008 -0.80484,1.230032 -0.43078,0.656386 -0.519508,0.7977 -0.519508,0.827403 0,0.01502 0.0201,0.04616 0.04466,0.0692 0.130798,0.122695 0.484158,0.224429 0.946051,0.272373 0.213975,0.02221 0.937026,0.0075 1.136886,-0.02322 z"
         style="fill:none;fill-opacity:1;stroke:#800080;stroke-width:0.2;stroke-dasharray:none;stroke-opacity:1"
         id="path2870"
         sodipodi:nodetypes="cscsscssssscsccccssscssscsscscc" /><path
         style="fill:none;fill-opacity:1;stroke:#800080;stroke-width:0.264583px;stroke-linecap:round;stroke-linejoin:miter;stroke-opacity:1"
         d="m 10.540894,26.237434 0.483955,0.0034"
         id="path6750" /><path
         style="fill:none;fill-opacity:1;stroke:#800080;stroke-width:0.264583px;stroke-linecap:round;stroke-linejoin:miter;stroke-opacity:1"
         d="m 11.412537,26.272567 0.451875,0.1733"
         id="path6750-7" /><path
         style="fill:none;fill-opacity:1;stroke:#800080;stroke-width:0.264583px;stroke-linecap:round;stroke-linejoin:miter;stroke-opacity:1"
         d="M 10.218774,26.335926 9.7649266,26.503992"
         id="path6750-7-5" /></g></g></svg>
