<?xml version="1.0" encoding="UTF-8" standalone="no"?>
<svg
   clip-rule="evenodd"
   fill-rule="evenodd"
   stroke-linejoin="round"
   stroke-miterlimit="2"
   viewBox="0 0 64 64"
   version="1.1"
   id="svg4"
   sodipodi:docname="icon.svg"
   inkscape:version="1.2.1 (9c6d41e410, 2022-07-14)"
   width="64"
   height="64"
   xmlns:inkscape="http://www.inkscape.org/namespaces/inkscape"
   xmlns:sodipodi="http://sodipodi.sourceforge.net/DTD/sodipodi-0.dtd"
   xmlns="http://www.w3.org/2000/svg"
   xmlns:svg="http://www.w3.org/2000/svg">
  <defs
     id="defs8" />
  <sodipodi:namedview
     id="namedview6"
     pagecolor="#ffffff"
     bordercolor="#666666"
     borderopacity="1.0"
     inkscape:showpageshadow="2"
     inkscape:pageopacity="0.0"
     inkscape:pagecheckerboard="0"
     inkscape:deskcolor="#d1d1d1"
     showgrid="false"
     inkscape:zoom="9.192388"
     inkscape:cx="6.0376042"
     inkscape:cy="20.832454"
     inkscape:window-width="1920"
     inkscape:window-height="1011"
     inkscape:window-x="0"
     inkscape:window-y="32"
     inkscape:window-maximized="1"
     inkscape:current-layer="svg4" />
  <path
     style="fill:#ffffff;stroke:none;stroke-width:1px;stroke-linecap:butt;stroke-linejoin:miter;stroke-opacity:1;fill-opacity:1"
     d="M 30.657,3.965481 44.556479,6.5736511 53.903335,15.339117 59.904858,29.406476 58.044613,44.689261 48.380364,56.030425 33.986808,61.11146 17.050426,57.066963 5.7492265,43.48728 3.731214,26.023477 11.554054,12.099121 24.841933,4.2046547 Z"
     id="path8407" />
  <g
     id="g9536"
     transform="matrix(20.387736,0,0,20.387736,-455.60962,-478.12382)">
    <path
       d="m 23.626028,26.397413 c -0.446462,-0.09521 -0.837757,-0.421395 -1.008806,-0.840946 -0.260025,-0.63779 -0.03645,-1.347012 0.542752,-1.721694 0.247333,-0.159999 0.51153,-0.229897 0.814291,-0.215435 0.21314,0.01018 0.347751,0.04079 0.514528,0.116999 0.503953,0.23028 0.834443,0.738467 0.834443,1.283103 0,0.600433 -0.402877,1.153108 -0.974473,1.336801 -0.225259,0.07239 -0.502327,0.08817 -0.722735,0.04117 z m 0.629858,-0.06915 c 0.519483,-0.134914 0.918021,-0.583868 0.99965,-1.126112 0.0077,-0.05136 0.01244,-0.09339 0.01046,-0.09339 -0.002,0 -0.03559,0.01398 -0.07469,0.03106 -0.342363,0.149573 -1.501657,0.196815 -2.19057,0.08927 -0.162813,-0.02542 -0.37113,-0.08082 -0.397097,-0.1056 -0.03277,-0.03127 -0.043,-0.01177 -0.03274,0.06242 0.07118,0.514815 0.415859,0.940478 0.900468,1.112023 0.235082,0.08322 0.536071,0.09485 0.784514,0.03033 z m 0.144369,-1.106921 c 0.418211,-0.02915 0.78417,-0.104916 0.84814,-0.175602 0.0243,-0.320212 -0.260934,-0.941527 -0.623683,-1.175416 -0.835456,-0.517945 -1.92116,0.0019 -2.054136,0.983623 -0.01651,0.07546 -0.0233,0.10828 -0.01664,0.14114 -0.154049,0.08244 0.287276,0.184929 0.853753,0.225615 0.277482,0.01993 0.711865,0.02021 0.992644,6.41e-4 z"
       style="fill:#800080;stroke:#800080;stroke-width:0.2;stroke-dasharray:none;stroke-opacity:1"
       id="path2113"
       sodipodi:nodetypes="sssssssssscscsscssscccccscc" />
    <path
       style="fill:none;stroke:#800080;stroke-width:0.264583px;stroke-linecap:round;stroke-linejoin:miter;stroke-opacity:1"
       d="m 23.62894,24.727958 0.483963,0.0023"
       id="path6750-7-56-2-9-2-9"
       inkscape:transform-center-x="-0.35831825"
       inkscape:transform-center-y="0.05292805" />
    <path
       style="fill:none;stroke:#800080;stroke-width:0.264583px;stroke-linecap:round;stroke-linejoin:miter;stroke-opacity:1"
       d="m 24.491808,24.762576 0.466877,0.12748"
       id="path6750-7-56-2-9-2-9-3"
       inkscape:transform-center-x="-0.33241025"
       inkscape:transform-center-y="0.14386405" />
    <path
       style="fill:none;stroke:#800080;stroke-width:0.264583px;stroke-linecap:round;stroke-linejoin:miter;stroke-opacity:1"
       d="m 22.833534,24.905705 0.468068,-0.123038"
       id="path6750-7-56-2-9-2-9-3-6"
       inkscape:transform-center-x="-0.35980775"
       inkscape:transform-center-y="-0.04161495" />
  </g>
</svg>
