<?xml version="1.0" encoding="UTF-8" standalone="no"?>
<svg
   clip-rule="evenodd"
   fill-rule="evenodd"
   stroke-linejoin="round"
   stroke-miterlimit="2"
   viewBox="0 0 64 64"
   version="1.1"
   id="svg4"
   sodipodi:docname="search-icon.svg"
   inkscape:version="1.2.1 (9c6d41e410, 2022-07-14)"
   width="64"
   height="64"
   xml:space="preserve"
   xmlns:inkscape="http://www.inkscape.org/namespaces/inkscape"
   xmlns:sodipodi="http://sodipodi.sourceforge.net/DTD/sodipodi-0.dtd"
   xmlns="http://www.w3.org/2000/svg"
   xmlns:svg="http://www.w3.org/2000/svg"><defs
     id="defs8" /><sodipodi:namedview
     id="namedview6"
     pagecolor="#ffffff"
     bordercolor="#666666"
     borderopacity="1.0"
     inkscape:showpageshadow="2"
     inkscape:pageopacity="0.0"
     inkscape:pagecheckerboard="0"
     inkscape:deskcolor="#d1d1d1"
     showgrid="false"
     inkscape:zoom="6.5"
     inkscape:cx="51.615385"
     inkscape:cy="32.846154"
     inkscape:window-width="1920"
     inkscape:window-height="1011"
     inkscape:window-x="0"
     inkscape:window-y="32"
     inkscape:window-maximized="1"
     inkscape:current-layer="svg4" /><path
     style="fill:#800080;stroke-width:0.063992"
     d="m 47.357764,55.455104 -7.755993,-7.756061 -1.138689,0.583322 c -2.770364,1.419188 -5.539829,2.250364 -8.849726,2.655995 -0.422952,0.05183 -1.418805,0.08138 -2.687664,0.07974 C 25.198743,51.0159 24.754085,50.99461 23.82208,50.869682 19.840039,50.335941 16.33492,49.029266 13.063882,46.85913 7.4819535,43.155858 3.5587235,37.310079 2.2953345,30.813539 1.2096695,25.230881 1.9709265,19.617301 4.4973695,14.575514 7.9951255,7.5953702 14.671037,2.5739507 22.350264,1.1471034 24.064067,0.82866845 24.54645,0.79090305 26.925692,0.78889765 c 2.529159,-0.00213 3.108098,0.048873 5.091233,0.44853745 8.400414,1.6929505 15.411696,7.6565802 18.486445,15.7241289 1.790986,4.699231 2.116566,9.968795 0.920086,14.891929 -0.72375,2.977957 -2.071411,5.95845 -3.820125,8.44855 l -0.516803,0.735908 7.549428,7.551215 7.54944,7.551214 -3.53582,3.535393 -3.53582,3.535391 z M 28.973436,40.902439 c 1.031005,-0.127964 2.524736,-0.509061 3.492251,-0.890979 5.224478,-2.062321 8.799874,-6.656618 9.534693,-12.251849 0.141919,-1.080628 0.09338,-3.424464 -0.09162,-4.42425 -0.611025,-3.302103 -2.100312,-6.098244 -4.452413,-8.359421 -4.121346,-3.962026 -10.022441,-5.2570737 -15.458038,-3.392404 -2.101882,0.721047 -4.110327,1.983826 -5.727716,3.601215 -2.333892,2.333891 -3.803914,5.274966 -4.300304,8.60362 -0.15458,1.03657 -0.151144,3.21078 0.0067,4.259204 0.511216,3.394899 2.038322,6.364626 4.491877,8.735251 2.651259,2.561646 5.838941,3.95465 9.720887,4.247988 0.539914,0.0408 1.941358,-0.02383 2.783652,-0.128375 z"
     id="path683" /></svg>
