<?xml version="1.0" encoding="UTF-8" standalone="no"?>
<svg
   height="80"
   viewBox="0 0 74.999995 74.999995"
   width="80"
   version="1.1"
   id="svg6107"
   sodipodi:docname="icon.svg"
   inkscape:version="1.2.1 (9c6d41e410, 2022-07-14, custom)"
   xmlns:inkscape="http://www.inkscape.org/namespaces/inkscape"
   xmlns:sodipodi="http://sodipodi.sourceforge.net/DTD/sodipodi-0.dtd"
   xmlns="http://www.w3.org/2000/svg"
   xmlns:svg="http://www.w3.org/2000/svg">
  <defs
     id="defs6111" />
  <sodipodi:namedview
     id="namedview6109"
     pagecolor="#ffffff"
     bordercolor="#666666"
     borderopacity="1.0"
     inkscape:showpageshadow="2"
     inkscape:pageopacity="0.0"
     inkscape:pagecheckerboard="0"
     inkscape:deskcolor="#d1d1d1"
     showgrid="false"
     inkscape:zoom="26"
     inkscape:cx="14.596154"
     inkscape:cy="12.096154"
     inkscape:window-width="1920"
     inkscape:window-height="1011"
     inkscape:window-x="0"
     inkscape:window-y="32"
     inkscape:window-maximized="1"
     inkscape:current-layer="svg6107" />
  <g
     id="g6232"
     transform="matrix(5,0,0,5,-1.435e-4,-1.1975e-4)">
    <path
       d="M 8,1 C 6.2531,1 4.672,1.22648 3.4414,1.63672 2.82612,1.84184 2.2943,2.08859 1.8516,2.4375 1.40888,2.78641 1.00004,3.31851 1.00004,4 v 8 c 0,0.68149 0.40884,1.2155 0.85156,1.5645 0.44272,0.34891 0.97457,0.59577 1.5898,0.80078 1.2306,0.41024 2.8117,0.63477 4.5586,0.63477 0.095648,0 0.18467,-0.0084 0.2793,-0.0098 C 8.1071,14.695824 8,14.360334 8,14.000054 v -1 c -1.5668,0 -2.9867,-0.2195 -3.9277,-0.5332 C 3.60901,12.312504 3.16756,12.129334 3,12.000054 v -5.8125 c 0.1468,0.058667 0.2835,0.12515 0.44141,0.17773 1.2306,0.41024 2.8117,0.63477 4.5586,0.63477 1.7469,0 3.328,-0.22453 4.5586,-0.63477 0.15791,-0.052267 0.29461,-0.11864 0.44141,-0.17773 v 1.8125 h 1 c 0.36396,0 0.70348,0.10774 1,0.2832 v -4.2832 c 0,-0.68149 -0.40884,-1.2136 -0.85156,-1.5625 -0.44272,-0.34891 -0.97457,-0.59566 -1.5898,-0.80078 -1.2306,-0.41024 -2.8117,-0.63672 -4.5586,-0.63672 z m 0,2 c 1.5668,0 2.9867,0.22145 3.9277,0.53516 0.46368,0.15456 0.80138,0.33741 0.96875,0.4668 C 12.72893,4.13124 12.39099,4.31246 11.9277,4.4668 10.98668,4.78051 9.5667,5 8,5 6.4333,5 5.0133,4.7805 4.0723,4.4668 3.60901,4.31245 3.27107,4.13124 3.10355,4.00196 3.27092,3.87257 3.60862,3.68972 4.0723,3.53516 5.01332,3.22145 6.4333,3 8,3 Z"
       fill="#fc7f7f"
       stroke-width="1.0667"
       transform="scale(0.9375)"
       id="path6103" />
    <path
       d="m 11.25,8.4375 c -0.51938,0 -0.9375,0.41812 -0.9375,0.9375 v 0.9375 h 1.875 v 1.875 h 0.9375 c 0.51938,0 0.9375,-0.41812 0.9375,-0.9375 V 9.375 c 0,-0.51938 -0.41812,-0.9375 -0.9375,-0.9375 z m 0.9375,3.75 h -1.875 v -1.875 H 9.375 c -0.51938,0 -0.9375,0.41812 -0.9375,0.9375 v 1.875 c 0,0.51938 0.41812,0.9375 0.9375,0.9375 h 1.875 c 0.51938,0 0.9375,-0.41812 0.9375,-0.9375 z"
       fill="#5fb2ff"
       id="path6105" />
  </g>
</svg>
