<?xml version="1.0" encoding="UTF-8" standalone="no"?>
<svg
   clip-rule="evenodd"
   fill-rule="evenodd"
   stroke-linejoin="round"
   stroke-miterlimit="2"
   viewBox="0 0 64 64"
   version="1.1"
   id="svg4"
   sodipodi:docname="icon.svg"
   inkscape:version="1.2.1 (9c6d41e410, 2022-07-14)"
   width="64"
   height="64"
   xmlns:inkscape="http://www.inkscape.org/namespaces/inkscape"
   xmlns:sodipodi="http://sodipodi.sourceforge.net/DTD/sodipodi-0.dtd"
   xmlns="http://www.w3.org/2000/svg"
   xmlns:svg="http://www.w3.org/2000/svg">
  <defs
     id="defs8" />
  <sodipodi:namedview
     id="namedview6"
     pagecolor="#ffffff"
     bordercolor="#666666"
     borderopacity="1.0"
     inkscape:showpageshadow="2"
     inkscape:pageopacity="0.0"
     inkscape:pagecheckerboard="0"
     inkscape:deskcolor="#d1d1d1"
     showgrid="false"
     inkscape:zoom="6.5"
     inkscape:cx="-15.153846"
     inkscape:cy="21"
     inkscape:window-width="1920"
     inkscape:window-height="1011"
     inkscape:window-x="0"
     inkscape:window-y="32"
     inkscape:window-maximized="1"
     inkscape:current-layer="svg4" />
  <path
     style="fill:#ffffff;stroke:none;stroke-width:1px;stroke-linecap:butt;stroke-linejoin:miter;stroke-opacity:1;fill-opacity:1"
     d="M 9.6113469,9.2717238 18.636165,4.7983633 44.722487,4.7922645 54.935922,8.9952862 54.983736,55.571805 44.31312,60.759127 16.30588,59.66009 9.264085,53.368483 9.559129,10.044687 Z"
     id="path3169" />
  <g
     id="g9549"
     transform="matrix(20.3343,0,0,20.3343,-619.85492,-487.6956)">
    <path
       d="m 31.738654,26.95216 c -0.436611,-0.0438 -0.692974,-0.118186 -0.777467,-0.225602 -0.03329,-0.04232 -0.03355,-0.05228 -0.03003,-1.176723 l 0.0036,-1.134039 0.03784,-0.04027 c 0.193277,-0.20571 1.139908,-0.289787 1.781181,-0.1582 0.190599,0.03911 0.329733,0.0927 0.385529,0.1485 l 0.04486,0.04486 v 1.142641 c 0,1.034853 -0.0025,1.146245 -0.02676,1.180842 -0.06148,0.08778 -0.366951,0.178165 -0.718,0.212457 -0.156473,0.01529 -0.570856,0.01855 -0.700711,0.0055 z m 0.61398,-0.05438 c 0.527318,0.02912 0.684232,-0.207174 0.751265,-0.356463 0.03101,0.0166 0.0315,0.0014 0.0315,-0.982823 v -0.999682 l -0.07715,0.0388 c -0.100254,0.05042 -0.218487,0.08387 -0.418559,0.118406 -0.238119,0.04111 -0.906372,0.04131 -1.152779,3.44e-4 -0.187348,-0.03115 -0.388171,-0.09051 -0.455562,-0.134665 l -0.03979,-0.02607 v 1.000703 c 0.0046,0.533344 -0.09701,1.036796 0.202194,1.244023 0.268555,0.0924 0.723501,0.130641 1.158926,0.09742 z m 0.04696,-2.209785 c 0.333093,-0.02811 0.594067,-0.09345 0.68762,-0.172173 0.06047,-0.05088 0.06047,-0.07315 0,-0.124033 -0.274963,-0.231364 -1.61561,-0.246737 -2.017763,-0.02314 -0.2322,0.129106 0.09215,0.274818 0.726043,0.32617 0.153075,0.0124 0.41077,0.0095 0.6041,-0.0068 z"
       style="fill:#800080;stroke:#800080;stroke-width:0.2;stroke-dasharray:none;stroke-opacity:1"
       id="path2196"
       sodipodi:nodetypes="csccssscscsccccscssssccccccsssscc" />
    <path
       style="fill:none;stroke:#800080;stroke-width:0.264583px;stroke-linecap:round;stroke-linejoin:miter;stroke-opacity:1"
       d="m 31.781761,26.447965 0.483963,0.0023"
       id="path6750-7-56-2-9-2-9-0-1"
       inkscape:transform-center-x="-0.35831825"
       inkscape:transform-center-y="0.05292805" />
    <path
       style="fill:none;stroke:#800080;stroke-width:0.264583px;stroke-linecap:round;stroke-linejoin:miter;stroke-opacity:1"
       d="m 32.664925,26.516537 0.466877,0.12748"
       id="path6750-7-56-2-9-2-9-0-1-8"
       inkscape:transform-center-x="-0.33241025"
       inkscape:transform-center-y="0.14386405" />
    <path
       style="fill:none;stroke:#800080;stroke-width:0.264583px;stroke-linecap:round;stroke-linejoin:miter;stroke-opacity:1"
       d="m 30.983098,26.657552 0.468068,-0.123038"
       id="path6750-7-56-2-9-2-9-0-1-8-7"
       inkscape:transform-center-x="-0.35980775"
       inkscape:transform-center-y="-0.04161495" />
  </g>
</svg>
