<?xml version="1.0" encoding="UTF-8" standalone="no"?>
<svg
   clip-rule="evenodd"
   fill-rule="evenodd"
   stroke-linejoin="round"
   stroke-miterlimit="2"
   viewBox="0 0 64 64"
   version="1.1"
   id="svg4"
   sodipodi:docname="icon.svg"
   inkscape:version="1.2.1 (9c6d41e410, 2022-07-14)"
   width="64"
   height="64"
   xmlns:inkscape="http://www.inkscape.org/namespaces/inkscape"
   xmlns:sodipodi="http://sodipodi.sourceforge.net/DTD/sodipodi-0.dtd"
   xmlns="http://www.w3.org/2000/svg"
   xmlns:svg="http://www.w3.org/2000/svg">
  <defs
     id="defs8" />
  <sodipodi:namedview
     id="namedview6"
     pagecolor="#ffffff"
     bordercolor="#666666"
     borderopacity="1.0"
     inkscape:showpageshadow="2"
     inkscape:pageopacity="0.0"
     inkscape:pagecheckerboard="0"
     inkscape:deskcolor="#d1d1d1"
     showgrid="false"
     inkscape:zoom="9.1923882"
     inkscape:cx="22.899381"
     inkscape:cy="30.623163"
     inkscape:window-width="1920"
     inkscape:window-height="1011"
     inkscape:window-x="0"
     inkscape:window-y="32"
     inkscape:window-maximized="1"
     inkscape:current-layer="svg4" />
  <path
     style="fill:#ffffff;stroke:none;stroke-width:1px;stroke-linecap:butt;stroke-linejoin:miter;stroke-opacity:1;fill-opacity:1"
     d="m 17.412153,10.939974 14.986811,-3.2714516 13.866865,3.2117826 9.927654,7.427311 5.146025,13.051298 -3.643895,13.40337 -12.622748,9.227997 -17.321308,2.330705 c 0,0 -15.060366,-5.742334 -15.486173,-6.319773 -0.425807,-0.57744 -8.8629107,-11.524202 -8.8629107,-11.987823 0,-0.46362 0.8130971,-14.475165 0.8130971,-14.475165 0,0 6.9881236,-10.180798 8.0758876,-10.39323 1.087764,-0.212433 5.120695,-2.205021 5.120695,-2.205021 z"
     id="path8955" />
  <g
     id="g9580"
     transform="matrix(18.447647,0,0,21.272917,-683.44441,-515.08873)">
    <ellipse
       style="fill:none;stroke:#800080;stroke-width:0.2;stroke-dasharray:none;stroke-opacity:1"
       id="path2323"
       cx="38.782421"
       cy="25.717617"
       rx="1.5663978"
       ry="1.1359903" />
    <ellipse
       style="fill:none;stroke:#800080;stroke-width:0.2;stroke-linecap:round;stroke-dasharray:0.500001, 0.4;stroke-dashoffset:0.22;stroke-opacity:1"
       id="path2323-6"
       transform="scale(-1,1)"
       ry="0.88421559"
       rx="1.3127478"
       cy="25.720705"
       cx="-38.795967" />
    <ellipse
       style="fill:none;stroke:#800080;stroke-width:0.2;stroke-dasharray:none;stroke-opacity:1"
       id="path2323-3"
       cx="38.782421"
       cy="25.717617"
       rx="0.83447236"
       ry="0.48464662" />
    <path
       id="path2810"
       style="fill:none;stroke:#800080;stroke-width:0.2;stroke-dasharray:none;stroke-opacity:1"
       d="m 37.593364,26.459874 c -0.09288,-0.183774 -0.107301,-0.379329 0.01973,-0.505887 0.127027,-0.126557 0.344478,-0.177067 0.437673,0.0064"
       sodipodi:nodetypes="csc" />
  </g>
</svg>
