<?xml version="1.0" encoding="UTF-8" standalone="no"?>
<svg
   clip-rule="evenodd"
   fill-rule="evenodd"
   stroke-linejoin="round"
   stroke-miterlimit="2"
   viewBox="0 0 64 64"
   version="1.1"
   id="svg4"
   sodipodi:docname="icon.svg"
   inkscape:version="1.2.1 (9c6d41e410, 2022-07-14)"
   width="64"
   height="64"
   xmlns:inkscape="http://www.inkscape.org/namespaces/inkscape"
   xmlns:sodipodi="http://sodipodi.sourceforge.net/DTD/sodipodi-0.dtd"
   xmlns="http://www.w3.org/2000/svg"
   xmlns:svg="http://www.w3.org/2000/svg">
  <defs
     id="defs8" />
  <sodipodi:namedview
     id="namedview6"
     pagecolor="#ffffff"
     bordercolor="#666666"
     borderopacity="1.0"
     inkscape:showpageshadow="2"
     inkscape:pageopacity="0.0"
     inkscape:pagecheckerboard="0"
     inkscape:deskcolor="#d1d1d1"
     showgrid="false"
     inkscape:zoom="3.25"
     inkscape:cx="42"
     inkscape:cy="32.153846"
     inkscape:window-width="960"
     inkscape:window-height="1011"
     inkscape:window-x="0"
     inkscape:window-y="32"
     inkscape:window-maximized="0"
     inkscape:current-layer="svg4" />
  <path
     style="fill:#ffffff;stroke:none;stroke-width:1px;stroke-linecap:butt;stroke-linejoin:miter;stroke-opacity:1;fill-opacity:1"
     d="M 4.7117497,9.0250901 38.315951,5.7638409 59.584895,15.035175 60.042884,52.351281 23.458383,57.646597 3.941979,46.775541 Z"
     id="path2430" />
  <g
     id="g9518"
     transform="matrix(19.540935,0,0,19.540935,-267.64686,-459.3951)">
    <path
       d="m 14.754293,26.432713 c -0.675299,-0.376274 -0.851514,-0.477023 -0.862024,-0.492853 -0.01643,-0.02475 -0.01387,-1.978896 0.0026,-2.005589 0.0095,-0.01541 0.237268,-0.03804 0.847706,-0.08423 1.000546,-0.07571 1.015969,-0.07632 1.080294,-0.04306 0.02734,0.01414 0.136744,0.06304 0.243117,0.108673 0.106374,0.04563 0.20035,0.08989 0.208836,0.09836 0.0085,0.0085 0.02428,0.01539 0.03509,0.01539 0.01082,0 0.0733,0.02454 0.138862,0.05454 0.06556,0.02999 0.168585,0.07497 0.228949,0.09994 l 0.109752,0.0454 -0.0042,0.992236 -0.0042,0.992236 -0.592805,0.09296 c -0.326042,0.05113 -0.751207,0.117346 -0.944811,0.147154 l -0.352007,0.0542 z m 1.04533,-0.120391 c 0.751527,-0.118111 0.87656,-0.141676 0.905552,-0.170668 0.03333,-0.03333 0.0336,-0.04206 0.02944,-0.947071 l -0.0042,-0.913433 -0.06496,0.0043 c -0.474204,0.08487 -1.016978,0.08517 -1.356062,0.11065 l -0.38987,0.02954 v 0.6528 c 0,0.791827 8.3e-5,0.465988 2.7e-5,1.033795 -1.6e-5,0.185353 0.0018,0.337006 0.0041,0.337006 0.0023,0 0.396453,-0.06166 0.876007,-0.137031 z m -0.932651,-1.390313 -0.0043,-0.504106 -0.458814,-0.217223 -0.458814,-0.217222 v 0.956827 c 0,0.817829 0.0034,0.956826 0.02317,0.956826 0.01274,0 0.02553,0.0121 0.02842,0.02689 0.0031,0.016 0.1795,0.124226 0.435643,0.267307 l 0.430392,0.240418 0.0043,-0.502805 c 0.0024,-0.276542 0.0024,-0.729652 0,-1.006911 z m 0.425913,-0.576691 c 0.441394,-0.03098 0.53496,-0.04337 0.999024,-0.08009 0.0536,-0.0045 0.150434,-0.01258 0.215196,-0.01788 0.06476,-0.0053 0.117749,-0.01453 0.117749,-0.02052 0,-0.006 -0.02197,-0.02061 -0.04882,-0.0325 -0.02685,-0.01188 -0.04584,-0.02646 -0.0422,-0.03239 0.0036,-0.0059 -0.01276,-0.01154 -0.03645,-0.01248 -0.02369,-9.34e-4 -0.09057,-0.02399 -0.148635,-0.05124 -0.316147,-0.148372 -0.568508,-0.221664 -0.589713,-0.232746 -0.177383,-0.0927 -0.04369,0.02179 -0.04369,-0.009 0,-0.02305 -0.01506,-0.02548 -0.10963,-0.01769 -0.06029,0.005 -0.436686,0.03334 -0.836423,0.06306 -0.399736,0.02972 -0.726722,0.05778 -0.726635,0.06236 3.71e-4,0.01933 0.840557,0.403947 0.884799,0.405036 0.0267,6.56e-4 0.191137,-0.01011 0.365428,-0.02393 z"
       style="fill:#800080;stroke:#800080;stroke-width:0.2;stroke-dasharray:none;stroke-opacity:1"
       id="path2008"
       sodipodi:nodetypes="cscssscscscccsscccssccccccsccccccsscsccscccsscccssscssscc" />
    <path
       style="fill:none;stroke:#800080;stroke-width:0.264583px;stroke-linecap:round;stroke-linejoin:miter;stroke-opacity:1"
       d="m 13.932541,25.905812 0.478271,-0.07404"
       id="path6750-7-3" />
    <path
       style="fill:none;stroke:#800080;stroke-width:0.264583px;stroke-linecap:round;stroke-linejoin:miter;stroke-opacity:1"
       d="m 14.803328,25.741469 0.478271,-0.07404"
       id="path6750-7-3-1" />
    <path
       style="fill:none;stroke:#800080;stroke-width:0.264583px;stroke-linecap:round;stroke-linejoin:miter;stroke-opacity:1"
       d="m 15.659906,24.000484 -0.01289,0.483796"
       id="path6750-7-56" />
    <path
       style="fill:none;stroke:#800080;stroke-width:0.264583px;stroke-linecap:round;stroke-linejoin:miter;stroke-opacity:1"
       d="m 15.634409,24.900603 -0.01289,0.483796"
       id="path6750-7-56-2"
       inkscape:transform-center-x="0.060760247"
       inkscape:transform-center-y="0.35707205" />
    <path
       style="fill:none;stroke:#800080;stroke-width:0.264583px;stroke-linecap:round;stroke-linejoin:miter;stroke-opacity:1"
       d="m 15.983278,25.69613 0.442105,0.196897"
       id="path6750-7-56-2-9"
       inkscape:transform-center-x="-0.30670625"
       inkscape:transform-center-y="0.19267455" />
  </g>
</svg>
